<?xml version="1.0" encoding="UTF-8" standalone="no"?>
<!-- Created with Inkscape (http://www.inkscape.org/) -->

<svg
   width="57mm"
   height="112mm"
   viewBox="0 0 57 112"
   version="1.1"
   id="svg5"
   inkscape:version="1.2.2 (732a01da63, 2022-12-09)"
   sodipodi:docname="drawing.svg"
   xmlns:inkscape="http://www.inkscape.org/namespaces/inkscape"
   xmlns:sodipodi="http://sodipodi.sourceforge.net/DTD/sodipodi-0.dtd"
   xmlns="http://www.w3.org/2000/svg"
   xmlns:svg="http://www.w3.org/2000/svg">
  <sodipodi:namedview
     id="namedview7"
     pagecolor="#505050"
     bordercolor="#ffffff"
     borderopacity="1"
     inkscape:showpageshadow="0"
     inkscape:pageopacity="0"
     inkscape:pagecheckerboard="1"
     inkscape:deskcolor="#505050"
     inkscape:document-units="mm"
     showgrid="false"
     inkscape:zoom="1.1537135"
     inkscape:cx="263.06359"
     inkscape:cy="253.96254"
     inkscape:window-width="1920"
     inkscape:window-height="1017"
     inkscape:window-x="-8"
     inkscape:window-y="-8"
     inkscape:window-maximized="1"
     inkscape:current-layer="layer1" />
  <defs
     id="defs2" />
  <g
     inkscape:label="Layer 1"
     inkscape:groupmode="layer"
     id="layer1">
    <g
       id="g627" />
    <g
       id="g1627"
       transform="rotate(-10.725771,-479.59319,289.4958)">
      <rect
         style="fill:#000000;fill-rule:evenodd;stroke-width:0.264999"
         id="rect1032"
         width="7.8648648"
         height="5.5135136"
         x="68.027023"
         y="143.91891"
         ry="1.9054081" />
      <path
         style="fill:#000000;fill-rule:evenodd;stroke-width:0.264999"
         d="m 60.151538,138.54504 c -7.789969,-0.0862 -22.747254,-2.39976 -22.378343,4.18959 -0.03118,9.25073 -0.157521,13.28017 -0.195746,22.10945 l 2.96621,-0.0405 0.331279,-17.77063 c -0.233497,-8.0606 12.83756,-4.10326 18.817937,-5.04789 z"
         id="path686-0"
         sodipodi:nodetypes="ccccccc" />
      <rect
         style="fill:#000000;fill-rule:evenodd;stroke-width:0.225422"
         id="rect681"
         width="7.6216221"
         height="8.5135136"
         x="68.675667"
         y="123.32433"
         ry="1.9054083" />
      <rect
         style="fill:#808080;fill-rule:evenodd;stroke-width:0.183661"
         id="rect288"
         width="35.351349"
         height="23.189188"
         x="55.297298"
         y="103.62162"
         ry="4.8454089" />
      <rect
         style="fill:#999999;fill-rule:evenodd;stroke-width:0.174147"
         id="rect288-4"
         width="31.783783"
         height="23.189188"
         x="54.000004"
         y="103.70271"
         ry="4.8454089" />
      <rect
         style="fill:#000000;fill-rule:evenodd;stroke-width:0.231055"
         id="rect1039"
         width="6.3243246"
         height="20.635136"
         x="57.851349"
         y="169.49998"
         ry="2.5256581" />
      <path
         style="fill:#666666;fill-rule:evenodd;stroke-width:0.264999"
         id="path1119"
         sodipodi:type="arc"
         sodipodi:cx="48.729729"
         sodipodi:cy="196.47972"
         sodipodi:rx="2.9189188"
         sodipodi:ry="3.2635136"
         sodipodi:start="0"
         sodipodi:end="6.2204887"
         sodipodi:open="true"
         sodipodi:arc-type="arc"
         d="m 51.648648,196.47972 a 2.9189188,3.2635136 0 0 1 -2.87317,3.26311 2.9189188,3.2635136 0 0 1 -2.963234,-3.16082 2.9189188,3.2635136 0 0 1 2.780281,-3.3622 2.9189188,3.2635136 0 0 1 3.050387,3.05543" />
      <rect
         style="fill:#999999;fill-rule:evenodd;stroke-width:0.264999"
         id="rect1247"
         width="1.945946"
         height="3.3648648"
         x="46.175674"
         y="191.43245"
         ry="0.97297299" />
      <path
         style="fill:#b3b3b3;fill-rule:evenodd;stroke-width:0.264999"
         id="path1119-8"
         sodipodi:type="arc"
         sodipodi:cx="47.797302"
         sodipodi:cy="196.41891"
         sodipodi:rx="2.9189188"
         sodipodi:ry="3.2635136"
         sodipodi:start="0"
         sodipodi:end="6.2204887"
         sodipodi:open="true"
         sodipodi:arc-type="arc"
         d="m 50.716221,196.41891 a 2.9189188,3.2635136 0 0 1 -2.873169,3.26312 2.9189188,3.2635136 0 0 1 -2.963234,-3.16083 2.9189188,3.2635136 0 0 1 2.78028,-3.36219 2.9189188,3.2635136 0 0 1 3.050388,3.05543" />
      <path
         style="fill:#666666;fill-rule:evenodd;stroke-width:0.264999"
         id="path1119-1"
         sodipodi:type="arc"
         sodipodi:cx="60.020267"
         sodipodi:cy="201.83107"
         sodipodi:rx="2.9189188"
         sodipodi:ry="3.2635136"
         sodipodi:start="0"
         sodipodi:end="6.2204887"
         sodipodi:open="true"
         sodipodi:arc-type="arc"
         d="m 62.939186,201.83107 a 2.9189188,3.2635136 0 0 1 -2.873169,3.26311 2.9189188,3.2635136 0 0 1 -2.963234,-3.16082 2.9189188,3.2635136 0 0 1 2.78028,-3.3622 2.9189188,3.2635136 0 0 1 3.050388,3.05543" />
      <rect
         style="fill:#999999;fill-rule:evenodd;stroke-width:0.264999"
         id="rect1247-3"
         width="1.945946"
         height="3.3648648"
         x="57.020267"
         y="196.62163"
         ry="0.97297299" />
      <path
         style="fill:#b3b3b3;fill-rule:evenodd;stroke-width:0.264999"
         id="path1119-8-5"
         sodipodi:type="arc"
         sodipodi:cx="59.087841"
         sodipodi:cy="201.77026"
         sodipodi:rx="2.9189188"
         sodipodi:ry="3.2635136"
         sodipodi:start="0"
         sodipodi:end="6.2204887"
         sodipodi:open="true"
         sodipodi:arc-type="arc"
         d="m 62.00676,201.77026 a 2.9189188,3.2635136 0 0 1 -2.873169,3.26312 2.9189188,3.2635136 0 0 1 -2.963235,-3.16083 2.9189188,3.2635136 0 0 1 2.780281,-3.36219 2.9189188,3.2635136 0 0 1 3.050388,3.05543" />
      <path
         style="fill:#666666;fill-rule:evenodd;stroke-width:0.264999"
         id="path1119-88"
         sodipodi:type="arc"
         sodipodi:cx="75.912155"
         sodipodi:cy="196.76352"
         sodipodi:rx="2.9189188"
         sodipodi:ry="3.2635136"
         sodipodi:start="0"
         sodipodi:end="6.2204887"
         sodipodi:open="true"
         sodipodi:arc-type="arc"
         d="m 78.831074,196.76352 a 2.9189188,3.2635136 0 0 1 -2.873169,3.26311 2.9189188,3.2635136 0 0 1 -2.963235,-3.16082 2.9189188,3.2635136 0 0 1 2.780281,-3.3622 2.9189188,3.2635136 0 0 1 3.050388,3.05543" />
      <rect
         style="fill:#999999;fill-rule:evenodd;stroke-width:0.264999"
         id="rect1247-4"
         width="1.945946"
         height="3.3648648"
         x="73.033783"
         y="191.18921"
         ry="0.97297299" />
      <path
         style="fill:#b3b3b3;fill-rule:evenodd;stroke-width:0.264999"
         id="path1119-8-7"
         sodipodi:type="arc"
         sodipodi:cx="74.979729"
         sodipodi:cy="196.70271"
         sodipodi:rx="2.9189188"
         sodipodi:ry="3.2635136"
         sodipodi:start="0"
         sodipodi:end="6.2204887"
         sodipodi:open="true"
         sodipodi:arc-type="arc"
         d="m 77.898648,196.70271 a 2.9189188,3.2635136 0 0 1 -2.87317,3.26312 2.9189188,3.2635136 0 0 1 -2.963234,-3.16083 2.9189188,3.2635136 0 0 1 2.780281,-3.36219 2.9189188,3.2635136 0 0 1 3.050387,3.05543" />
      <rect
         style="fill:#000000;fill-rule:evenodd;stroke-width:0.264999"
         id="rect1041-3"
         width="16.175676"
         height="4.6216216"
         x="125.23734"
         y="147.91281"
         ry="2.3108108"
         transform="rotate(21.534186)" />
      <rect
         style="fill:#000000;fill-rule:evenodd;stroke-width:0.264999"
         id="rect1065"
         width="4.9864864"
         height="12.648648"
         x="118.49893"
         y="153.86728"
         ry="2.3108108"
         transform="rotate(19.849033)" />
      <rect
         style="fill:#000000;fill-rule:evenodd;stroke-width:0.264999"
         id="rect1041"
         width="16.175676"
         height="4.6216216"
         x="-37.269337"
         y="190.85316"
         ry="2.3108108"
         transform="rotate(-24.334466)" />
      <g
         id="g619">
        <rect
           style="fill:#808080;fill-rule:evenodd;stroke-width:0.147314"
           id="rect288-1"
           width="28.312363"
           height="18.627884"
           x="58.768707"
           y="127.86486"
           ry="3.8923187" />
        <rect
           style="fill:#999999;fill-rule:evenodd;stroke-width:0.130198"
           id="rect288-4-1"
           width="23.496391"
           height="17.533289"
           x="57.891888"
           y="127.88564"
           ry="3.6636019" />
      </g>
      <g
         id="g623">
        <rect
           style="fill:#808080;fill-rule:evenodd;stroke-width:0.147153"
           id="rect288-1-9"
           width="28.312363"
           height="18.587343"
           x="59.09304"
           y="146.71622"
           ry="3.8838477" />
        <rect
           style="fill:#999999;fill-rule:evenodd;stroke-width:0.131976"
           id="rect288-4-1-2"
           width="23.6502"
           height="17.898153"
           x="58.216221"
           y="146.69646"
           ry="3.7398407" />
      </g>
      <path
         style="fill:#000000;fill-rule:evenodd;stroke-width:0.264999"
         d="m 82.559493,140.35114 c -7.789969,-0.0862 -22.747254,-2.39976 -22.378343,4.18959 -0.03118,9.25073 0.166803,11.57747 0.128578,20.40675 l 2.722967,-0.0405 0.250198,-16.06793 c -0.233497,-8.0606 12.83756,-4.10326 18.817937,-5.04789 z"
         id="path686"
         sodipodi:nodetypes="ccccccc" />
      <rect
         style="fill:#999999;fill-rule:evenodd;stroke-width:0.264999"
         id="rect1027"
         width="32.027027"
         height="6.5675673"
         x="35.270271"
         y="164.51352"
         ry="3.2837837" />
      <rect
         style="fill:#808080;fill-rule:evenodd;stroke-width:0.200438"
         id="rect1025"
         width="29.108105"
         height="6.7297297"
         x="58.945946"
         y="164.43243"
         ry="3.3648648" />
    </g>
  </g>
</svg>
